<?xml version="1.0" standalone="no"?>
<!DOCTYPE svg PUBLIC "-//W3C//DTD SVG 20010904//EN" "http://www.w3.org/TR/2001/REC-SVG-20010904/DTD/svg10.dtd">
<svg version="1.0" xmlns="http://www.w3.org/2000/svg" width="200.000000pt" height="200.000000pt"
    viewBox="0 0 200.000000 200.000000" preserveAspectRatio="xMidYMid meet">

    <g transform="translate(0.000000,200.000000) scale(0.100000,-0.100000)" fill="white" stroke="none">
        <path d="M1123 1968 c-6 -7 -18 -35 -28 -63 -34 -91 -121 -269 -179 -365 -183
-300 -454 -568 -749 -739 -143 -84 -149 -88 -145 -118 5 -45 31 -51 93 -20
364 178 729 541 944 940 55 103 141 306 141 334 0 38 -55 59 -77 31z" />
        <path d="M1491 1959 c-4 -12 -25 -33 -46 -48 -63 -43 -80 -74 -80 -146 0 -74
15 -101 90 -155 160 -117 180 -146 135 -203 -32 -41 -83 -38 -124 8 -33 36
-63 44 -84 23 -30 -30 3 -92 69 -134 21 -13 39 -31 39 -39 0 -20 40 -35 62
-24 9 5 19 17 23 26 3 10 25 30 48 44 52 31 77 79 77 144 0 74 -24 111 -109
169 -143 96 -169 139 -116 191 38 39 87 34 121 -10 27 -36 60 -45 82 -23 29
29 0 93 -59 129 -21 13 -42 34 -48 47 -14 30 -68 31 -80 1z" />
        <path d="M1342 1158 c-9 -9 -12 -127 -12 -469 0 -403 2 -459 16 -473 13 -13
44 -16 180 -16 95 0 174 4 185 10 18 10 19 26 19 473 0 347 -3 466 -12 475
-17 17 -359 17 -376 0z m298 -468 l0 -390 -110 0 -110 0 0 390 0 390 110 0
110 0 0 -390z" />
        <path d="M812 878 c-9 -9 -12 -97 -12 -335 0 -308 1 -323 19 -333 26 -13 336
-13 362 0 18 10 19 25 19 333 0 238 -3 326 -12 335 -17 17 -359 17 -376 0z
m298 -328 l0 -250 -110 0 -110 0 0 250 0 250 110 0 110 0 0 -250z" />
        <path d="M288 569 c-16 -9 -18 -29 -18 -179 0 -157 1 -170 19 -180 11 -6 90
-10 185 -10 136 0 167 3 180 16 13 13 16 44 16 179 0 152 -1 165 -19 175 -26
13 -340 13 -363 -1z m292 -179 l0 -90 -110 0 -110 0 0 90 0 90 110 0 110 0 0
-90z" />
        <path d="M31 96 c-7 -8 -11 -27 -9 -43 l3 -28 975 0 975 0 3 28 c7 61 68 57
-978 57 -821 0 -959 -2 -969 -14z" />
    </g>
</svg>